<svg width="30" height="30" viewBox="0 0 30 30" fill="none" xmlns="http://www.w3.org/2000/svg">
<g clip-path="url(#clip0_1144_3220)">
<path d="M14.3615 0.125963L15.0362 0.115977C19.7607 0.110406 24.3169 2.4902 27.067 6.32885L27.7238 7.29547C29.3462 9.95147 30.1431 13.1376 29.8388 16.2451L29.4249 18.6617C27.7891 24.9755 22.1997 29.5592 15.6335 29.8698L15.4981 29.8808C14.8962 29.9063 14.2726 29.8916 13.6738 29.8319L13.08 29.7498C6.56546 28.9033 1.43236 23.8505 0.330623 17.4293L0.187727 16.4209C0.161001 16.1778 0.124959 15.9322 0.118645 15.6873L0.116455 14.8248C0.118952 9.32065 3.52594 4.05032 8.45212 1.64409C10.2574 0.762284 12.3484 0.169445 14.3615 0.125963ZM15.0182 4.43075C14.7383 4.46856 14.7137 4.71161 14.6284 4.94403L12.6316 10.199C12.5653 10.3646 12.5177 10.5397 12.4292 10.6953L12.4022 10.7488L6.27624 11.2607C6.08558 11.2753 5.72929 11.4246 5.90429 11.6675L5.91554 11.6834C5.9889 11.7831 6.10175 11.86 6.19726 11.9379L10.7682 15.7317C10.8164 15.7725 10.8888 15.8304 10.8781 15.8956L9.32517 22.1336C9.27841 22.3117 9.42449 22.4077 9.58117 22.4624C9.70175 22.4108 9.80341 22.3357 9.91187 22.2631L14.9956 18.9327C15.1424 19.0646 15.3445 19.1692 15.5117 19.2771L19.9322 22.1763C20.0764 22.2654 20.2049 22.371 20.3535 22.4538C20.8799 22.2627 20.6431 21.971 20.516 21.4779L19.3066 16.6713C19.2771 16.5502 19.0878 15.8928 19.1174 15.8302C19.1542 15.7521 19.3071 15.6533 19.3725 15.5986L23.6347 12.0591C23.8155 11.9171 24.2765 11.6756 24.0866 11.3833C23.9932 11.2396 23.6542 11.2619 23.5053 11.2464L17.8697 10.7682C17.8008 10.7626 17.6215 10.7743 17.5705 10.738L15.5669 5.43334C15.4723 5.17904 15.3045 4.46027 15.0182 4.43075Z" fill="#C8C8C8"/>
</g>
<defs>
<clipPath id="clip0_1144_3220">
<rect width="30" height="30" fill="white"/>
</clipPath>
</defs>
</svg>
