<svg width="50" height="50" viewBox="0 0 50 50" fill="none" xmlns="http://www.w3.org/2000/svg">
<path d="M11.5 0.5H45C47.4853 0.5 49.5 2.51472 49.5 5V43C49.5 45.4853 47.4853 47.5 45 47.5H11.5V0.5Z" fill="white" stroke="#C8C8C8"/>
<path d="M30.3333 7.33325C32.3224 7.33325 34.23 8.12343 35.6366 9.52995C37.0431 10.9365 37.8333 12.8441 37.8333 14.8333C37.8333 16.8224 37.0431 18.73 35.6366 20.1366C34.23 21.5431 32.3224 22.3333 30.3333 22.3333C28.3441 22.3333 26.4365 21.5431 25.03 20.1366C23.6234 18.73 22.8333 16.8224 22.8333 14.8333C22.8333 12.8441 23.6234 10.9365 25.03 9.52995C26.4365 8.12343 28.3441 7.33325 30.3333 7.33325ZM30.3333 26.0833C38.6208 26.0833 45.3333 29.4395 45.3333 33.5833V37.3333H15.3333V33.5833C15.3333 29.4395 22.0458 26.0833 30.3333 26.0833Z" fill="#C8C8C8"/>
</svg>
