<svg width="50" height="50" viewBox="0 0 50 50" fill="none" xmlns="http://www.w3.org/2000/svg">
<path d="M11.5 2.5H45C47.4853 2.5 49.5 4.51472 49.5 7V45C49.5 47.4853 47.4853 49.5 45 49.5H11.5V2.5Z" fill="white" stroke="#C8C8C8"/>
<g clip-path="url(#clip0_1144_3157)">
<path d="M19 36V37H21V36H19ZM29 36V37H31V36H29ZM21 36V35H19V36H21ZM29 35V36H31V35H29ZM25 31C26.0609 31 27.0783 31.4214 27.8284 32.1716C28.5786 32.9217 29 33.9391 29 35H31C31 33.4087 30.3679 31.8826 29.2426 30.7574C28.1174 29.6321 26.5913 29 25 29V31ZM21 35C21 33.9391 21.4214 32.9217 22.1716 32.1716C22.9217 31.4214 23.9391 31 25 31V29C23.4087 29 21.8826 29.6321 20.7574 30.7574C19.6321 31.8826 19 33.4087 19 35H21ZM25 19C23.9391 19 22.9217 19.4214 22.1716 20.1716C21.4214 20.9217 21 21.9391 21 23H23C23 22.4696 23.2107 21.9609 23.5858 21.5858C23.9609 21.2107 24.4696 21 25 21V19ZM29 23C29 21.9391 28.5786 20.9217 27.8284 20.1716C27.0783 19.4214 26.0609 19 25 19V21C25.5304 21 26.0391 21.2107 26.4142 21.5858C26.7893 21.9609 27 22.4696 27 23H29ZM25 27C26.0609 27 27.0783 26.5786 27.8284 25.8284C28.5786 25.0783 29 24.0609 29 23H27C27 23.5304 26.7893 24.0391 26.4142 24.4142C26.0391 24.7893 25.5304 25 25 25V27ZM25 25C24.4696 25 23.9609 24.7893 23.5858 24.4142C23.2107 24.0391 23 23.5304 23 23H21C21 24.0609 21.4214 25.0783 22.1716 25.8284C22.9217 26.5786 23.9391 27 25 27V25ZM18 17H42V15H18V17ZM43 18V34H45V18H43ZM42 35H18V37H42V35ZM17 34V18H15V34H17ZM18 35C17.7348 35 17.4804 34.8946 17.2929 34.7071C17.1054 34.5196 17 34.2652 17 34H15C15 34.7956 15.3161 35.5587 15.8787 36.1213C16.4413 36.6839 17.2044 37 18 37V35ZM43 34C43 34.2652 42.8946 34.5196 42.7071 34.7071C42.5196 34.8946 42.2652 35 42 35V37C42.7956 37 43.5587 36.6839 44.1213 36.1213C44.6839 35.5587 45 34.7956 45 34H43ZM42 17C42.2652 17 42.5196 17.1054 42.7071 17.2929C42.8946 17.4804 43 17.7348 43 18H45C45 17.2044 44.6839 16.4413 44.1213 15.8787C43.5587 15.3161 42.7956 15 42 15V17ZM18 15C17.2044 15 16.4413 15.3161 15.8787 15.8787C15.3161 16.4413 15 17.2044 15 18H17C17 17.7348 17.1054 17.4804 17.2929 17.2929C17.4804 17.1054 17.7348 17 18 17V15ZM33 23H39V21H33V23ZM33 29H39V27H33V29Z" fill="#C8C8C8"/>
</g>
<defs>
<clipPath id="clip0_1144_3157">
<rect width="30" height="30" fill="white" transform="translate(15 11)"/>
</clipPath>
</defs>
</svg>
