<svg width="30" height="30" viewBox="0 0 30 30" fill="none" xmlns="http://www.w3.org/2000/svg">
<g clip-path="url(#clip0_1144_3185)">
<path d="M15.4975 15.5229L15.5494 15.5151C15.7919 15.8065 16.0617 16.1039 16.2135 16.4538C15.8367 17.0238 15.8467 16.5026 15.851 17.3641L15.8912 18.8086C15.9048 19.0491 15.8924 19.2927 15.9213 19.5321L14.7986 19.5342L14.2549 19.5412C14.284 19.1708 14.2705 18.7987 14.2812 18.4277L14.3118 17.0864C14.3114 16.6506 14.1617 16.798 14.0146 16.4821C14.0984 16.2505 14.2691 16.0575 14.4063 15.8568C14.6404 15.5145 14.5165 15.5318 14.9246 15.5354L15.4975 15.5229Z" fill="#C8C8C8"/>
<path d="M14.6782 6.24194L15.8711 6.24376C16.9292 6.27276 18.9246 6.55759 19.6681 7.34362C18.6287 7.85761 16.7171 8.09134 15.5868 8.12661L14.4726 8.11606C13.5939 8.0754 12.3742 7.9411 11.5202 7.67755L10.5486 7.35628C11.3615 6.60235 12.716 6.36897 13.7768 6.28853L14.6782 6.24194Z" fill="#C8C8C8"/>
<path d="M7.2576 28.3785C7.77827 28.3722 8.24924 28.3924 8.75936 28.5249C9.47438 28.7106 10.1876 29.0539 10.9357 29.0759C11.913 29.1047 12.4178 28.9755 13.3614 28.6564C14.7967 28.171 15.6918 28.3691 17.0335 28.801C18.0148 29.1168 18.994 29.1842 19.9949 28.8971C21.3672 28.5034 21.9986 28.1213 23.54 28.5246C24.9628 28.8968 25.593 29.2868 27.1069 28.9601C27.6375 28.8456 29.0474 28.2641 29.5331 28.4796C29.7744 28.5867 29.832 29.2033 29.554 29.2981L29.5385 29.3031C29.4039 29.3492 29.2538 29.3339 29.1137 29.3409C28.5493 29.369 27.8889 29.7089 27.3193 29.8374C26.8928 29.9337 26.4309 29.8841 25.9973 29.8841L25.3591 29.8835C24.4441 29.8815 23.7884 29.4594 22.9069 29.2966C21.4372 29.0769 20.6361 29.8806 19.2579 29.8834L17.9366 29.8831C16.8951 29.881 15.9974 29.2475 14.9397 29.261C14.1335 29.2714 13.4368 29.6031 12.6757 29.8121C12.2671 29.9243 11.8398 29.8838 11.421 29.884L10.6526 29.8835C9.98842 29.8823 9.70506 29.7585 9.08198 29.5453C8.0628 29.1968 7.28496 29.1579 6.23303 29.509C5.66659 29.6981 5.26973 29.8814 4.66997 29.883L4.03101 29.8837C3.59067 29.8838 3.11801 29.9356 2.68448 29.8414C2.08022 29.7102 1.51521 29.4313 0.900824 29.3343C0.761928 29.3124 0.50638 29.3049 0.388129 29.223C0.204303 29.0956 0.237674 28.691 0.3543 28.5383C0.622691 28.1869 2.70112 28.9501 3.12006 29.0142C4.33091 29.1992 4.95668 28.9676 6.0937 28.609C6.48305 28.4862 6.85202 28.4155 7.2576 28.3785Z" fill="#C8C8C8"/>
<path d="M7.08468 26.6795C7.91073 26.6579 8.44517 26.7113 9.25101 26.9638C9.99099 27.1957 10.6901 27.4178 11.4771 27.3693C12.478 27.3077 13.3373 26.8213 14.3033 26.7012C15.1184 26.5997 15.9402 26.7039 16.7212 26.9456L17.536 27.2061C18.1844 27.3803 18.8641 27.4049 19.5264 27.2998L19.7393 27.2567C20.4531 27.1274 21.1182 26.7521 21.8498 26.6996C22.7356 26.636 23.5294 26.7169 24.379 27.0022C24.6911 27.107 25.0191 27.272 25.346 27.3179L25.5469 27.3486C25.9793 27.4288 26.5379 27.3921 26.9597 27.291C27.5504 27.1496 29.0272 26.5098 29.6202 26.6928C29.8222 26.7551 29.8107 27.1344 29.7586 27.2849L29.7514 27.3047C29.7278 27.3819 29.6917 27.4899 29.6024 27.5113L29.5752 27.5151C29.4206 27.5372 29.2628 27.5338 29.1075 27.5508C28.3496 27.6343 27.6776 28.0815 26.9262 28.1947L26.7353 28.2272C25.2344 28.3718 24.7597 27.9809 23.4363 27.6524L22.9508 27.5775C22.0815 27.5063 21.4682 27.6185 20.6434 27.8964C19.4592 28.2953 18.5153 28.4288 17.2616 28.0457L16.5342 27.8028C15.5086 27.4911 14.4808 27.4742 13.4536 27.7993C13.1248 27.9034 12.806 28.0371 12.4732 28.1293C11.6144 28.3673 10.605 28.2918 9.76317 28.0401C8.18173 27.5674 7.48376 27.2869 5.81548 27.8643C4.64308 28.27 3.81761 28.4679 2.54888 28.0672L1.55868 27.7148C1.26555 27.6234 0.987026 27.577 0.687037 27.5214L0.490772 27.495C0.154989 27.4379 0.181516 26.9329 0.322954 26.7574C0.395679 26.6672 0.540391 26.6834 0.64458 26.6823C1.64186 26.6723 2.26419 27.144 3.14946 27.3192C4.68779 27.6237 5.61272 26.8199 7.08468 26.6795Z" fill="#C8C8C8"/>
<path d="M18.7936 14.6543C18.8967 14.7101 19.0154 14.736 19.1267 14.7705L21.2549 15.38C22.1137 15.6077 23.0225 15.7505 23.7155 16.3522C24.3438 16.8977 24.6442 17.6477 24.7095 18.4644L24.7486 19.542L22.7702 19.5336L16.7861 19.539C16.8874 19.3781 16.9498 19.1531 17.0206 18.9737L18.7936 14.6543Z" fill="#C8C8C8"/>
<path d="M11.4308 14.5679L11.4538 14.5898C11.4829 14.7176 11.5423 14.8453 11.5913 14.9667L13.1569 18.8625C13.2428 19.0835 13.3173 19.338 13.4434 19.5392L7.34246 19.5339L5.29134 19.5413C5.21551 17.4239 5.69787 16.2834 7.85949 15.6248L10.9087 14.7378C11.0745 14.6828 11.2561 14.6421 11.4161 14.5742L11.4308 14.5679Z" fill="#C8C8C8"/>
<path d="M10.9313 8.29773C11.0629 8.35328 11.2003 8.38621 11.338 8.42295L12.378 8.65721C14.2407 9.07076 16.6714 8.98562 18.5304 8.52174C18.8 8.45453 19.0821 8.39436 19.3396 8.29053L19.3855 8.37736C19.7094 8.96635 19.8514 9.71365 19.4666 10.3052L19.4522 10.3272C19.192 10.7286 19.0439 10.4136 18.8697 10.9424C18.7608 11.2729 18.5162 11.207 18.3581 11.6605L18.2387 11.9656C18.1511 12.1801 18.0373 12.3841 17.9308 12.5896C17.7563 12.8726 17.5776 13.1404 17.3573 13.3908C16.4031 14.4756 15.1418 15.0241 13.8334 14.2724C12.9151 13.7448 12.0113 12.5788 11.7476 11.5383L11.6846 11.2625C11.6652 11.173 11.6682 11.1788 11.5828 11.1372C10.9959 10.8508 10.2175 9.58393 10.6922 8.95352L10.7062 8.93559C10.7674 8.85607 10.8529 8.80522 10.935 8.74949C10.8917 8.61004 10.9122 8.44041 10.9313 8.29773Z" fill="#C8C8C8"/>
<path d="M29.2282 20.292C29.3724 20.2695 29.541 20.2804 29.6859 20.2911L29.6338 20.5004C29.5333 20.8378 29.2229 21.1209 29.0141 21.3934L28.7499 21.7555C28.6226 21.931 28.6039 21.9721 28.3846 21.9701L2.27056 21.969C1.99501 21.9691 1.70225 21.9906 1.42979 21.959C1.33713 21.8974 1.26991 21.7459 1.20143 21.6557L0.717531 20.9636C0.643299 20.8579 0.323359 20.439 0.407557 20.2957L29.2282 20.292Z" fill="#C8C8C8"/>
<path d="M14.7476 0.122225L14.7902 0.117429C15.7986 0.103379 17.3075 0.706686 18.1979 1.1226C19.5664 1.76173 21.7437 3.26494 21.7499 4.85368C21.7533 5.73139 20.923 6.20109 20.3589 6.73154C20.2509 6.83314 20.0572 6.58031 19.907 6.48C18.6309 5.62818 16.6802 5.456 15.1911 5.45099L14.4517 5.45444C13.0166 5.48059 10.811 5.87806 9.82682 6.89713C9.3003 6.2973 8.3158 5.9042 8.25996 4.99394C8.21555 4.26972 8.65149 3.60058 9.11145 3.08058C10.2861 1.75256 11.9498 0.916053 13.6213 0.399116L14.3258 0.210644C14.4653 0.176848 14.6038 0.131521 14.7476 0.122225ZM14.8497 1.32426C14.463 1.35799 14.1234 1.54278 13.8741 1.83975L13.7692 1.98498C13.0814 3.07246 13.9479 4.34291 15.1868 4.23889C16.1353 4.11242 16.7628 3.03897 16.3238 2.16377L16.3132 2.14239C16.0771 1.6688 15.4014 1.23212 14.8497 1.32426Z" fill="#C8C8C8"/>
<path d="M14.9213 2.15498C14.978 2.15263 15.0309 2.15003 15.0865 2.16336L15.1915 2.18737C15.8529 2.34422 15.7485 3.35776 15.0621 3.43636C14.6787 3.47281 14.2696 3.11969 14.3501 2.71607L14.3545 2.69523C14.416 2.37692 14.6096 2.23147 14.9213 2.15498Z" fill="#C8C8C8"/>
<path d="M6.31359 22.7552L28.0965 22.749C28.0314 22.7961 27.9804 22.8987 27.9362 22.9654L26.3072 25.2393C26.005 25.6637 25.723 26.1149 25.3933 26.5179C25.2603 26.4276 25.0809 26.373 24.931 26.3129C24.0118 25.9446 23.2696 25.8588 22.3059 25.8668C21.8103 25.8883 21.3434 25.9622 20.8666 26.1036C20.2968 26.2724 19.7623 26.5176 19.1601 26.5553C18.2126 26.6146 17.7887 26.4584 16.9228 26.1696C15.6772 25.7542 14.3268 25.763 13.0799 26.1819C12.2324 26.4665 11.6036 26.679 10.6787 26.5444C10.1217 26.4633 9.60879 26.2373 9.07377 26.0747C7.79461 25.6859 5.84287 25.868 4.6417 26.5156L4.63075 26.5217C4.52323 26.4065 4.4363 26.2662 4.34627 26.137L2.29255 23.2447C2.23284 23.1626 2.02833 22.8164 1.96387 22.775L6.31359 22.7552Z" fill="#C8C8C8"/>
</g>
<defs>
<clipPath id="clip0_1144_3185">
<rect width="30" height="30" fill="white"/>
</clipPath>
</defs>
</svg>
