<svg width="40" height="40" viewBox="0 0 40 40" fill="none" xmlns="http://www.w3.org/2000/svg">
<path d="M8.08341 19.5551L15.6567 8.64506C15.809 8.43729 15.9834 8.30395 16.1801 8.24506C16.3767 8.18618 16.5784 8.18784 16.7851 8.25006C16.9929 8.31229 17.164 8.43007 17.2984 8.6034C17.4329 8.77673 17.5001 8.98395 17.5001 9.22506V20.3201C17.5001 20.7067 17.3723 21.0278 17.1167 21.2834C16.8612 21.539 16.5401 21.6667 16.1534 21.6667H9.17008C8.90119 21.6667 8.66786 21.5995 8.47008 21.4651C8.27453 21.3306 8.11786 21.1595 8.00008 20.9517C7.8823 20.7451 7.82897 20.519 7.84008 20.2734C7.85119 20.029 7.9323 19.7895 8.08341 19.5551ZM9.77175 20.0001H15.8334V11.2984L9.77175 20.0001ZM23.7051 21.6667C23.0851 21.6667 22.7029 21.4462 22.5584 21.0051C22.4129 20.564 22.4017 20.1006 22.5251 19.6151C22.7395 18.624 22.9279 17.5017 23.0901 16.2484C23.2523 14.9951 23.3334 13.7456 23.3334 12.5001C23.3334 11.1478 23.2573 9.83006 23.1051 8.54673C22.954 7.2634 22.7717 6.11006 22.5584 5.08673C22.5029 4.85784 22.5151 4.66229 22.5951 4.50006C22.6751 4.33784 22.7879 4.2084 22.9334 4.11173C23.0779 3.99506 23.2456 3.92618 23.4367 3.90506C23.6256 3.88506 23.8101 3.94118 23.9901 4.0734C25.4223 4.9434 26.6912 5.96729 27.7967 7.14507C28.9023 8.32284 29.8912 9.63562 30.7634 11.0834C31.599 12.4745 32.2879 13.9328 32.8301 15.4584C33.3712 16.984 33.7434 18.5523 33.9467 20.1634C34.0023 20.5712 33.8934 20.924 33.6201 21.2217C33.3479 21.5184 33.0079 21.6667 32.6001 21.6667H23.7051ZM24.1717 20.0001H32.2634C31.8545 17.2634 30.9551 14.7123 29.5651 12.3467C28.1762 9.98007 26.4784 7.99062 24.4717 6.3784C24.634 7.36729 24.7623 8.3934 24.8567 9.45673C24.9523 10.5201 25.0001 11.5345 25.0001 12.5001C25.0001 13.7634 24.9217 15.0356 24.7651 16.3167C24.6073 17.599 24.4084 18.8267 24.1717 20.0001ZM15.0001 31.8584C14.2556 31.8584 13.5412 31.7184 12.8567 31.4384C12.1723 31.1573 11.5201 30.8128 10.9001 30.4051C10.7556 30.3084 10.6129 30.2428 10.4717 30.2084C10.3306 30.1751 10.184 30.1684 10.0317 30.1884C9.88064 30.2106 9.73619 30.2456 9.59841 30.2934C9.46064 30.3412 9.33286 30.424 9.21508 30.5417C9.05064 30.6995 8.88508 30.8317 8.71841 30.9384C8.55175 31.0451 8.36841 31.1351 8.16841 31.2084C7.53953 30.7228 6.9773 30.1878 6.48175 29.6034C5.9873 29.0201 5.56619 28.379 5.21841 27.6801C4.99619 27.2578 5.02397 26.8445 5.30175 26.4401C5.58175 26.0356 5.95675 25.8334 6.42675 25.8334H33.5734C34.0434 25.8334 34.4095 26.0345 34.6717 26.4367C34.9329 26.8378 34.9695 27.2523 34.7817 27.6801C34.3995 28.3578 33.9695 28.994 33.4917 29.5884C33.014 30.1828 32.4601 30.7228 31.8301 31.2084C31.6523 31.134 31.4695 31.0384 31.2817 30.9217C31.094 30.8051 30.9284 30.6784 30.7851 30.5417C30.6673 30.424 30.5395 30.3412 30.4017 30.2934C30.264 30.2456 30.1195 30.2106 29.9684 30.1884C29.8162 30.1673 29.6695 30.1728 29.5284 30.2051C29.3873 30.2351 29.2445 30.2984 29.1001 30.3951C28.4801 30.8028 27.8279 31.149 27.1434 31.4334C26.4579 31.7167 25.7434 31.8584 25.0001 31.8584C24.2134 31.8584 23.469 31.7045 22.7667 31.3967C22.0645 31.089 21.3934 30.7195 20.7534 30.2884C20.6356 30.214 20.519 30.154 20.4034 30.1084C20.2867 30.064 20.1523 30.0417 20.0001 30.0417C19.8479 30.0417 19.714 30.064 19.5984 30.1084C19.4817 30.1528 19.3651 30.2128 19.2484 30.2884C18.6062 30.7184 17.934 31.0878 17.2317 31.3967C16.5306 31.7045 15.7867 31.8584 15.0001 31.8584ZM20.0001 36.1534C19.1301 36.6134 18.2784 36.9523 17.4451 37.1701C16.6117 37.3901 15.7967 37.5001 15.0001 37.5001C14.2034 37.5001 13.3884 37.3906 12.5551 37.1717C11.7217 36.9528 10.8701 36.614 10.0001 36.1551C9.13008 36.614 8.27841 36.9528 7.44508 37.1717C6.61175 37.3906 5.79675 37.5001 5.00008 37.5001C4.76341 37.5001 4.56508 37.4206 4.40508 37.2617C4.24619 37.1017 4.16675 36.9034 4.16675 36.6667C4.16675 36.4301 4.24619 36.2317 4.40508 36.0717C4.56508 35.9128 4.76341 35.8334 5.00008 35.8334C5.7923 35.8334 6.54786 35.7012 7.26675 35.4367C7.98564 35.1723 8.70008 34.874 9.41008 34.5417C9.50675 34.4862 9.60508 34.4501 9.70508 34.4334C9.80508 34.4156 9.90341 34.4067 10.0001 34.4067C10.0967 34.4067 10.1951 34.4156 10.2951 34.4334C10.3951 34.4501 10.4934 34.4862 10.5901 34.5417C11.299 34.8751 12.0129 35.1723 12.7317 35.4334C13.4517 35.6934 14.2079 35.8234 15.0001 35.8234C15.7923 35.8234 16.5479 35.6934 17.2667 35.4334C17.9867 35.1723 18.7012 34.8751 19.4101 34.5417C19.5067 34.4862 19.6051 34.4501 19.7051 34.4334C19.8051 34.4156 19.9034 34.4067 20.0001 34.4067C20.0967 34.4067 20.1951 34.4156 20.2951 34.4334C20.3951 34.4501 20.4934 34.4862 20.5901 34.5417C21.299 34.8751 22.0129 35.1723 22.7317 35.4334C23.4517 35.6934 24.2079 35.8234 25.0001 35.8234C25.7923 35.8234 26.5479 35.6934 27.2667 35.4334C27.9867 35.1723 28.7012 34.8751 29.4101 34.5417C29.479 34.5084 29.6756 34.464 30.0001 34.4084C30.0334 34.4084 30.2301 34.4528 30.5901 34.5417C31.299 34.8751 32.0129 35.1734 32.7317 35.4367C33.4506 35.7001 34.2067 35.8323 35.0001 35.8334C35.2367 35.8334 35.4351 35.9128 35.5951 36.0717C35.754 36.2317 35.8334 36.4301 35.8334 36.6667C35.8334 36.9034 35.754 37.1017 35.5951 37.2617C35.4351 37.4206 35.2367 37.5001 35.0001 37.5001C34.2034 37.5001 33.3884 37.3906 32.5551 37.1717C31.7217 36.9528 30.8701 36.614 30.0001 36.1551C29.1301 36.614 28.2784 36.9528 27.4451 37.1717C26.6117 37.3906 25.7967 37.5001 25.0001 37.5001C24.2034 37.5001 23.3884 37.3906 22.5551 37.1717C21.7217 36.9528 20.8701 36.614 20.0001 36.1551V36.1534Z" fill="#C8C8C8"/>
</svg>
