<svg width="30" height="30" viewBox="0 0 30 30" fill="none" xmlns="http://www.w3.org/2000/svg">
<path d="M25.2135 0.796227C25.7463 0.714981 26.2282 1.36913 26.5496 1.70649C26.7775 1.94573 27.0729 2.19747 27.2152 2.49894L27.2242 2.51843C27.3256 2.73252 27.3591 2.94444 27.3607 3.1785L27.3632 27.9199C27.3476 28.4162 26.9418 28.8359 26.4845 28.9784C26.2349 29.0561 25.9019 29.0169 25.6402 29.0167L4.02482 29.017L3.21504 29.0168C2.56609 29.015 1.92175 28.8206 1.76916 28.1139L1.76533 28.0956C1.71242 27.8628 1.7428 27.5856 1.74289 27.3461L1.7433 24.8862C1.74375 23.7492 1.88674 23.7772 2.62192 23.0423L22.5022 3.1668L24.557 1.14343C24.6796 1.0261 24.8161 0.910931 24.9783 0.854563L25.0048 0.845663C25.0766 0.820708 25.1379 0.80504 25.2135 0.796227ZM21.3042 9.23338L6.41806 24.0923L6.34189 24.1798C6.26847 24.2647 6.25581 24.4073 6.14237 24.4392C5.98622 24.4832 5.80303 24.499 5.64107 24.5127L4.92747 24.5825C4.55719 24.6035 4.17909 24.5903 3.80819 24.5896C3.59808 24.5892 2.96974 24.6756 2.85154 24.4567L2.8513 27.5542C2.85146 27.6724 2.8421 27.7999 2.85545 27.9172L3.77197 27.924L3.77196 27.0693C3.77216 26.8277 3.72937 26.4758 3.83215 26.2573L3.84398 26.2318C4.07581 25.7484 4.70327 25.8794 4.83566 26.353C4.93381 26.704 4.84119 27.5153 4.86719 27.9248L6.33937 27.9212L6.34341 26.9037C6.34388 26.526 6.3089 25.9776 6.89647 25.9978C7.38749 26.0148 7.42745 26.5433 7.42751 26.8947L7.42528 27.6562C7.42435 27.7388 7.40384 27.8461 7.42042 27.9241L8.81214 27.9007C8.78671 27.6066 8.77323 27.2298 8.97778 26.9929C9.37476 26.5332 9.87087 26.9716 9.88388 27.5318L9.87843 27.9223C10.2088 27.9463 10.5526 27.9269 10.8841 27.926L11.1847 27.9252C11.2346 27.9251 11.2914 27.9312 11.3393 27.9178C11.3392 27.5987 11.2953 27.2184 11.5429 26.9719C11.7694 26.7464 12.0792 26.7915 12.2835 27.022C12.4853 27.2497 12.4268 27.6472 12.4192 27.9289H13.9452L13.945 26.9135C13.9452 26.7632 13.9218 26.5631 13.9582 26.4184C14.0209 26.1686 14.3083 25.9826 14.5606 26.0279L14.5813 26.0315C15.0752 26.1268 15.0371 26.6084 15.0356 26.9868L15.0279 27.9268L16.0365 27.9253C16.1531 27.9251 16.3256 27.9475 16.4359 27.9169C16.4274 27.5739 16.3942 27.2094 16.6516 26.9409C16.847 26.7372 17.1715 26.753 17.3569 26.9607C17.5697 27.1992 17.5232 27.6246 17.505 27.9241L19.0048 27.9247C19.0008 27.59 18.9701 27.224 19.2261 26.9637C19.4208 26.7659 19.7174 26.7435 19.9146 26.952C20.142 27.1923 20.078 27.6223 20.0708 27.9284L21.636 27.9267L21.6351 26.9002C21.6351 26.5119 21.6083 25.9775 22.1998 25.9907C22.752 26.0029 22.7192 26.51 22.7194 26.9012L22.7187 27.924L25.9028 27.9306L25.5872 27.9216C25.4852 27.5479 25.4708 27.1422 25.4065 26.7592C25.2981 26.113 25.115 25.4589 25.0843 24.8043L25.1188 24.7829C24.9369 24.7832 24.677 24.8121 24.5044 24.7623L24.3677 24.7243C23.8598 24.5352 24.0587 23.9484 24.4751 23.7824C24.6898 23.7283 24.9167 23.7218 25.1368 23.7147C25.3454 23.4406 25.2241 22.8423 25.2029 22.5278L24.5507 22.524L23.7487 22.5179C23.2093 22.4704 23.0134 21.8091 23.3851 21.5392C23.7536 21.3844 24.0528 21.4306 24.4357 21.4341L25.5241 21.4335C25.7678 21.433 26.0157 21.4417 26.2588 21.4237L26.2602 20.6784C26.237 20.6585 26.1268 20.6687 26.0901 20.6688L25.3771 20.669C25.0502 20.6688 24.6252 20.7214 24.3613 20.4852C24.1643 20.3088 24.1352 19.948 24.3201 19.7534C24.5487 19.5131 24.9346 19.5653 25.2322 19.5655L26.2581 19.5689L26.2551 18.8094L25.4041 18.8093C25.265 18.8091 25.0778 18.8303 24.9472 18.786L24.9317 18.7806C24.6773 18.697 24.4571 18.4999 24.4539 18.2153C24.4474 17.6494 25.2156 17.6957 25.6048 17.6956L26.2604 17.6965L26.2605 16.9608C26.0839 16.9345 25.8855 16.9512 25.7065 16.9512L24.3692 16.9513C24.1379 16.9512 23.5059 17.0351 23.3664 16.8287L23.3573 16.8151C23.2183 16.4934 23.0408 16.0891 23.4203 15.9045C23.3716 15.8325 23.3965 15.6254 23.3926 15.5346L23.3691 13.0389L23.4719 11.7739C23.6045 11.9101 23.7255 11.9671 23.9061 12.0214C23.94 12 23.975 11.8904 23.9951 11.8505C24.0724 11.697 24.2016 11.5819 24.2872 11.4332L24.3018 11.455L24.2396 11.5539C24.2057 11.6005 24.1561 11.6415 24.1257 11.6893C24.0616 11.79 23.9847 12.0746 23.8406 12.0265L23.7781 12.008C23.6676 11.9678 23.5737 11.9085 23.4925 11.8249L23.5033 11.8579C23.5033 11.9139 23.4896 11.8984 23.4705 11.9421C23.4599 11.9665 23.4557 12.055 23.4632 12.085L23.5036 12.1289L23.5474 12.0777C23.5605 12.1038 23.559 12.0933 23.5591 12.1211L23.606 12.1363C23.6228 12.1555 23.6345 12.1714 23.6573 12.1839L23.6719 12.2241L23.7891 12.3706L23.8183 12.3779C23.8615 12.3959 23.9194 12.4107 23.9584 12.4342L23.9942 12.4365C24.0404 12.4672 24.0492 12.4515 24.0933 12.4382L24.159 12.4219C24.1847 12.4219 24.2109 12.4331 24.2313 12.4484L24.3097 12.4424C24.3238 12.4386 24.6308 12.1968 24.638 12.1896L24.668 12.1874C24.6919 12.1715 24.6835 12.1734 24.7074 12.1687L24.7632 12.1581C24.7992 12.1446 24.8418 12.1515 24.8731 12.1362L24.8877 12.1253C24.9949 12.1356 25.1719 12.1127 25.3125 12.1184L26.2455 12.0908L26.2513 11.8652C26.2202 11.8284 26.2383 11.7906 26.2345 11.7444L26.2318 11.6455C26.2254 11.5812 26.2467 11.4604 26.2134 11.4111H26.1182C26.0736 11.3814 24.9374 11.3944 24.7852 11.3998C24.6926 11.3306 24.4025 11.4222 24.2787 11.3781L24.4645 11.3675L23.9488 11.3654C23.812 11.3644 23.6434 11.3813 23.5173 11.3208L23.4961 11.3104C23.0574 11.1042 23.0438 10.5384 23.4604 10.3003C23.3554 10.1838 23.398 9.92561 23.3906 9.77842L23.3663 7.56832C23.3659 7.47387 23.3703 7.36617 23.3349 7.27729L23.2975 7.1693L21.3042 9.23338Z" fill="#C8C8C8"/>
<path d="M25.2028 22.5298L26.2603 22.5283L26.2654 23.7061C26.2494 23.7209 26.259 23.717 26.2362 23.717L25.1367 23.7157C25.3453 23.4406 25.224 22.8423 25.2028 22.5298Z" fill="#C8C8C8"/>
<path d="M25.6152 2.35181C26.3561 3.05987 26.2544 2.87358 26.2588 3.85354C26.2599 4.12207 26.2794 4.40594 26.2585 4.67245L25.2472 4.67682C25.0447 4.67761 24.5761 4.63828 24.3971 4.7409L24.3374 4.77618C24.3448 4.75267 24.3444 4.76271 24.3415 4.73837C24.2973 4.35885 24.6978 3.87449 24.8956 3.5839L25.2174 3.09016C25.3682 2.85 25.5017 2.6118 25.6152 2.35181Z" fill="#C8C8C8"/>
<path d="M25.1187 24.7798L26.2605 24.7839L26.261 27.9307L25.9027 27.927L25.5871 27.9218C25.4851 27.548 25.4708 27.1423 25.4065 26.7594C25.298 26.1131 25.1149 25.459 25.0842 24.8044L25.1187 24.7798Z" fill="#C8C8C8"/>
<path d="M24.4645 11.365L26.2528 11.3772C26.2714 11.4477 26.2607 11.5373 26.2609 11.6105L26.2614 12.1183C26.0498 12.2248 24.7289 11.9206 24.427 12.38C24.2322 12.6761 24.4677 13.0064 24.7343 13.1475C24.9409 13.2569 25.1427 13.2368 25.3668 13.2328L25.9333 13.2292C26.039 13.2295 26.1524 13.222 26.257 13.2363L26.2576 13.7192C26.2578 13.8007 26.2695 13.9 26.2501 13.9788L25.2603 13.9816C25.0778 13.9818 24.8682 13.9633 24.6888 13.9963C23.9366 14.1347 24.0588 14.9521 24.7222 15.0767C24.8606 15.1026 25.0164 15.0896 25.1575 15.0895L25.9426 15.0892C26.0373 15.0891 26.1674 15.0736 26.2574 15.0981L26.2563 15.8437L24.2168 15.8468C23.9747 15.8393 23.6656 15.8169 23.4356 15.9045C23.3717 15.8325 23.3966 15.6253 23.3926 15.5346L23.3691 13.0389L23.472 11.7739C23.6046 11.9101 23.7255 11.967 23.9061 12.0214C23.94 12 23.9751 11.8903 23.9951 11.8505C24.0724 11.6969 24.2016 11.5819 24.2872 11.4331L24.3018 11.455L24.2396 11.5539C24.2057 11.6004 24.1562 11.6414 24.1257 11.6892C24.0616 11.79 23.9847 12.0746 23.8406 12.0265L23.7781 12.008C23.6676 11.9677 23.5737 11.9085 23.4925 11.8248L23.5034 11.8578C23.5034 11.9139 23.4896 11.8984 23.4705 11.942C23.4599 11.9665 23.4557 12.0549 23.4632 12.0849L23.5036 12.1288L23.5474 12.0777C23.5605 12.1038 23.559 12.0933 23.5591 12.121L23.606 12.1363C23.6228 12.1555 23.6345 12.1714 23.6573 12.1838L23.672 12.224L23.7891 12.3705L23.8184 12.3779C23.8616 12.3958 23.9195 12.4107 23.9584 12.4342L23.9942 12.4364C24.0404 12.4672 24.0492 12.4514 24.0933 12.4381L24.159 12.4218C24.1848 12.4218 24.211 12.433 24.2313 12.4483L24.3097 12.4424C24.3238 12.4386 24.6308 12.1968 24.638 12.1895L24.668 12.1874C24.692 12.1715 24.6835 12.1734 24.7074 12.1687L24.7633 12.1581C24.7992 12.1446 24.8418 12.1515 24.8731 12.1361L24.8878 12.1252C24.9949 12.1356 25.1719 12.1127 25.3126 12.1183L26.2455 12.0907L26.2513 11.8651C26.2202 11.8283 26.2384 11.7906 26.2345 11.7443L26.2319 11.6454C26.2255 11.5812 26.2467 11.4604 26.2135 11.411H26.1182C26.0737 11.3813 24.9374 11.3943 24.7852 11.3997C24.6927 11.3306 24.4026 11.4222 24.2787 11.3781L24.4645 11.365Z" fill="#C8C8C8"/>
<path d="M2.85748 24.4569L2.85744 24.4386C2.85631 24.3339 2.92384 24.2844 2.99312 24.214L25.2567 1.97314L25.6152 2.35194C25.5017 2.61193 25.3682 2.85013 25.2173 3.09029L24.8955 3.58403C24.6978 3.87462 24.2973 4.35898 24.3415 4.73849C24.3444 4.76284 24.3448 4.7528 24.3374 4.7763C24.1176 5.04305 24.126 5.39027 24.4077 5.61029C24.6648 5.81113 24.9912 5.77263 25.2967 5.77313L25.9309 5.77381C26.0326 5.77393 26.163 5.75907 26.2606 5.78357L26.2603 6.53713L25.2993 6.53982C25.1169 6.54012 24.9014 6.51961 24.7239 6.55752C24.001 6.71186 24.0462 7.52004 24.8218 7.63506L24.8447 7.63887C24.9722 7.65885 25.1103 7.64754 25.2397 7.64719L25.9453 7.64707C26.0414 7.64719 26.1611 7.63389 26.2537 7.6575L26.2585 8.39572L25.3206 8.39578C24.9576 8.39625 24.4042 8.31762 24.2132 8.72326C24.0696 9.0283 24.2248 9.31729 24.5218 9.43775C24.8995 9.59092 25.8049 9.47959 26.2554 9.51656L26.2542 10.2664L24.0391 10.2623C23.8468 10.257 23.6526 10.2452 23.4656 10.3005C23.3554 10.1839 23.398 9.92578 23.3906 9.77859L23.3663 7.5685C23.3659 7.47404 23.3703 7.36635 23.3349 7.27746L23.2975 7.16947L21.3042 9.23355L6.41806 24.0925L6.34189 24.18C6.26847 24.2649 6.25581 24.4075 6.14238 24.4394C5.98622 24.4833 5.80304 24.4992 5.64108 24.5129L4.92747 24.5827C4.55719 24.6037 4.17909 24.5905 3.80819 24.5897C3.59808 24.5893 2.96975 24.6758 2.85748 24.4569Z" fill="#C8C8C8"/>
<path d="M21.3041 9.23352L23.2973 7.16943L23.3348 7.27742C23.3702 7.36631 23.3658 7.474 23.3662 7.56846L23.3904 9.77855C23.3979 9.92574 23.3553 10.1839 23.4603 10.3004C23.0437 10.5385 23.0573 11.1044 23.496 11.3105L23.5172 11.321C23.6433 11.3814 23.8118 11.3645 23.9487 11.3655L24.4643 11.3677L24.2785 11.3783C24.4024 11.4223 24.6925 11.3308 24.7851 11.3999C24.9373 11.3945 26.0735 11.3815 26.1181 11.4112H26.2133C26.2465 11.4605 26.2253 11.5814 26.2317 11.6456L26.2343 11.7445C26.2382 11.7908 26.2201 11.8285 26.2512 11.8653L26.2454 12.0909L25.3124 12.1185C25.1717 12.1129 24.9947 12.1357 24.8876 12.1254L24.873 12.1363C24.8417 12.1517 24.799 12.1447 24.7631 12.1583L24.7073 12.1688C24.6834 12.1736 24.6918 12.1716 24.6679 12.1876L24.6379 12.1897C24.6306 12.197 24.3237 12.4388 24.3095 12.4426L24.2312 12.4485C24.2108 12.4332 24.1846 12.422 24.1588 12.422L24.0932 12.4383C24.0491 12.4516 24.0402 12.4674 23.9941 12.4366L23.9583 12.4343C23.9193 12.4108 23.8614 12.396 23.8182 12.3781L23.789 12.3707L23.6718 12.2242L23.6572 12.184C23.6344 12.1715 23.6226 12.1556 23.6059 12.1364L23.559 12.1212C23.5589 12.0934 23.5604 12.104 23.5473 12.0778L23.5035 12.129L23.4631 12.0851C23.4556 12.0551 23.4598 11.9666 23.4704 11.9422C23.4895 11.8985 23.5032 11.9141 23.5032 11.858L23.4924 11.825C23.5736 11.9087 23.6675 11.9679 23.778 12.0082L23.8405 12.0267C23.9846 12.0747 24.0615 11.7901 24.1256 11.6894C24.156 11.6416 24.2056 11.6006 24.2395 11.5541L24.3017 11.4552L24.287 11.4333C24.2015 11.5821 24.0722 11.6971 23.995 11.8507C23.9749 11.8905 23.9399 12.0001 23.9059 12.0216C23.7254 11.9672 23.6044 11.9103 23.4718 11.7741L23.369 13.0391L23.3925 15.5347C23.3964 15.6255 23.3715 15.8326 23.4202 15.9046C23.0407 16.0892 23.2182 16.4936 23.3572 16.8152L23.3662 16.8288C23.5058 17.0352 24.1377 16.9513 24.3691 16.9514L25.7064 16.9513C25.8854 16.9514 26.0838 16.9347 26.2604 16.961L26.2603 17.6967L25.6046 17.6957C25.2155 17.6959 24.4472 17.6495 24.4537 18.2154C24.457 18.5 24.6772 18.6972 24.9316 18.7807L24.947 18.7862C25.0777 18.8305 25.2649 18.8093 25.404 18.8094L26.255 18.8096L26.258 19.569L25.232 19.5656C24.9345 19.5655 24.5485 19.5132 24.32 19.7535C24.135 19.9481 24.1642 20.309 24.3612 20.4853C24.6251 20.7216 25.0501 20.669 25.377 20.6691L26.09 20.6689C26.1267 20.6688 26.2369 20.6586 26.2601 20.6786L26.2587 21.4238C26.0156 21.4419 25.7677 21.4331 25.524 21.4337L24.4356 21.4343C24.0527 21.4307 23.7535 21.3845 23.385 21.5394C23.0133 21.8093 23.2092 22.4705 23.7486 22.518L24.5506 22.5241L25.2028 22.528C25.224 22.8424 25.3452 23.4407 25.1367 23.7148C24.9166 23.7219 24.6896 23.7284 24.475 23.7825C24.0586 23.9486 23.8597 24.5353 24.3676 24.7245L24.5042 24.7624C24.6769 24.8122 24.9368 24.7834 25.1187 24.7831L25.0842 24.8044C25.1149 25.459 25.298 26.1131 25.4064 26.7594C25.4707 27.1423 25.4851 27.548 25.5871 27.9218L25.9026 27.9307L22.7185 27.9241L22.7193 26.9013C22.7191 26.5102 22.7519 26.003 22.1996 25.9908C21.6082 25.9777 21.635 26.5121 21.635 26.9003L21.6359 27.9269L20.0706 27.9285C20.0779 27.6224 20.1419 27.1924 19.9145 26.9521C19.7173 26.7436 19.4207 26.7661 19.226 26.9639C18.97 27.2241 19.0007 27.5901 19.0046 27.9249L17.5049 27.9242C17.5231 27.6247 17.5696 27.1993 17.3567 26.9609C17.1714 26.7532 16.8469 26.7373 16.6515 26.9411C16.3941 27.2095 16.4273 27.574 16.4358 27.9171C16.3254 27.9476 16.153 27.9252 16.0363 27.9254L15.0278 27.9269L15.0355 26.987C15.037 26.6085 15.0751 26.127 14.5812 26.0316L14.5605 26.028C14.3082 25.9827 14.0208 26.1688 13.9581 26.4185C13.9217 26.5633 13.9451 26.7633 13.9448 26.9137L13.9451 27.929H12.4191C12.4267 27.6474 12.4852 27.2498 12.2834 27.0222C12.079 26.7917 11.7693 26.7465 11.5428 26.9721C11.2952 27.2185 11.3391 27.5988 11.3392 27.9179C11.2912 27.9314 11.2345 27.9252 11.1846 27.9253L10.884 27.9262C10.5524 27.927 10.2087 27.9464 9.87831 27.9225L9.88376 27.5319C9.87075 26.9718 9.37464 26.5333 8.97767 26.993C8.77312 27.2299 8.78659 27.6067 8.81202 27.9008L7.4203 27.9242C7.40372 27.8462 7.42423 27.7389 7.42517 27.6563L7.42739 26.8948C7.42734 26.5435 7.38737 26.0149 6.89636 25.9979C6.30878 25.9777 6.34376 26.5261 6.34329 26.9038L6.33925 27.9213L4.86707 27.925C4.84108 27.5154 4.9337 26.7041 4.83555 26.3531C4.70315 25.8795 4.0757 25.7485 3.84387 26.2319L3.83203 26.2574C3.72926 26.476 3.77204 26.8279 3.77185 27.0695L3.77185 27.9241L2.85534 27.9173C2.84199 27.8001 2.85134 27.6726 2.85119 27.5544L2.85143 24.4569C2.96963 24.6757 3.59797 24.5893 3.80807 24.5897C4.17897 24.5905 4.55707 24.6037 4.92735 24.5826L5.64096 24.5128C5.80292 24.4992 5.98611 24.4833 6.14226 24.4394C6.2557 24.4074 6.26835 24.2649 6.34177 24.18L6.41794 24.0924L21.3041 9.23352ZM9.80976 23.7039L9.82757 23.7965C9.89062 24.1364 10.1449 24.2512 10.4678 24.2582L20.721 24.2579C21.41 24.2551 21.5971 24.2101 21.5895 23.3899L21.5968 13.4913C21.5995 13.2437 21.4064 13.0657 21.2444 12.9016C20.9349 12.6624 20.7598 12.7184 20.488 12.976L10.1733 23.158C9.98589 23.3332 9.84269 23.4395 9.80976 23.7039Z" fill="url(#paint0_linear_1144_3197)" fill-opacity="0.5"/>
<path d="M24.5508 22.5222L25.203 22.5278C25.2241 22.8423 25.3454 23.4406 25.1369 23.7147C24.9167 23.7218 24.6898 23.7283 24.4752 23.7824L24.4317 23.7295C24.3763 23.6454 24.4769 22.691 24.4996 22.5394L24.5508 22.5222Z" fill="#C8C8C8"/>
<path d="M9.80981 23.7039C9.84274 23.4394 9.98595 23.3331 10.1733 23.158L20.4881 12.9759C20.7599 12.7184 20.935 12.6624 21.2445 12.9015C21.4065 13.0656 21.5995 13.2437 21.5968 13.4912L21.5896 23.3899C21.5972 24.21 21.41 24.2551 20.721 24.2578L10.4678 24.2581C10.145 24.2511 9.89067 24.1363 9.82763 23.7964L9.80981 23.7039ZM20.4533 14.5386C20.1483 14.8981 19.7812 15.222 19.4474 15.5555L17.1465 17.8183L11.9383 22.9896C11.903 23.0246 11.7782 23.1292 11.7724 23.1687L11.814 23.1732L20.4932 23.1738L20.4533 14.5386Z" fill="#C8C8C8"/>
<defs>
<linearGradient id="paint0_linear_1144_3197" x1="11.8614" y1="15.9665" x2="22.8497" y2="30.2438" gradientUnits="userSpaceOnUse">
<stop stop-color="#D9D9D9"/>
<stop offset="1" stop-color="#D9D9D9"/>
</linearGradient>
</defs>
</svg>
