<svg width="30" height="30" viewBox="0 0 30 30" fill="none" xmlns="http://www.w3.org/2000/svg">
<g clip-path="url(#clip0_1144_3182)">
<path d="M1.98793 0.723463C3.05446 0.679541 3.36821 1.76156 3.21753 2.62208L3.18982 2.74617C3.07033 2.86537 2.77889 2.77165 2.77313 2.9702L2.75023 27.6086C2.74974 28.1924 2.88662 29.0282 2.0328 29.0821C1.75668 29.0687 1.49573 29.1144 1.23263 28.9964L1.16895 28.9666C0.720173 28.7108 0.819045 28.2298 0.820574 27.7954L0.822361 1.93201C0.830494 1.69396 0.89258 1.47787 1.02688 1.27986L1.07772 1.20788C1.32287 0.906071 1.60795 0.769553 1.98793 0.723463Z" fill="#C8C8C8"/>
<path d="M7.83083 2.48C9.94695 2.44841 11.4254 2.72022 13.4913 3.329L16.7432 4.398C17.6976 4.71175 18.6696 5.01409 19.6656 5.1626C22.6234 5.60362 26.1594 4.86508 28.6671 3.19605C28.7359 3.15028 29.1113 2.89435 29.1587 2.84206L29.1717 19.4559C28.43 20.067 26.7655 20.7375 25.8825 21.034C22.2957 22.2243 19.8209 21.8958 16.3404 20.6835L14.3893 19.9969L12.4824 19.4262C9.86333 18.7099 7.5988 18.6008 5.03909 19.5459L4.2156 19.8706C4.1444 19.9028 4.00421 19.923 3.95534 19.9782L3.94849 3.65225C3.95134 3.50161 3.93019 3.50271 4.07146 3.44361L4.32583 3.33287C5.42187 2.84457 6.63657 2.56516 7.83083 2.48Z" fill="#C8C8C8"/>
</g>
<defs>
<clipPath id="clip0_1144_3182">
<rect width="30" height="30" fill="white"/>
</clipPath>
</defs>
</svg>
